# xmcd CD database file
#
# Track frame offsets:
#	150
#	14502
#	28465
#	43090
#	62539
#	78575
#	94756
#	109177
#	122916
#	138327
#	153710
#	168683
#	182712
#	196762
#
# Disc length: 2867 seconds
#
# Revision: 0
# Processed by: cddbd v1.5.2PL0 Copyright (c) Steve Scherf et al.
# Submitted via: ACXtractor (MTCDDB.DLL V2003.07.15)
#
DISCID=c60b310e
DTITLE=Pete Smith - Bygone Days
DYEAR=2013
DGENRE=Country
TTITLE0=The Picture on the Wall
TTITLE1=The Track I Travel Each Evening In My Mind
TTITLE2=Axe Marks On The Gidgee
TTITLE3=Bygone Trucking Days
TTITLE4=Natural High
TTITLE5=Trumby
TTITLE6=A Little Drop of Squeaky Top
TTITLE7=The Bigest Disappointment
TTITLE8=The Black Sheep
TTITLE9=The Singing Wanderer Medley
TTITLE10=Mandrake
TTITLE11=White Crosses
TTITLE12=Warwick Rodeo
TTITLE13=Sunday Calling
EXTD=ID3G:   2 YEAR: 2013
EXTT0=
EXTT1=
EXTT2=
EXTT3=
EXTT4=
EXTT5=
EXTT6=
EXTT7=
EXTT8=
EXTT9=
EXTT10=
EXTT11=
EXTT12=
EXTT13=
PLAYORDER=
